<?xml version="1.0" encoding="utf-8"?>
<!-- Generator: Adobe Illustrator 21.0.0, SVG Export Plug-In . SVG Version: 6.00 Build 0)  -->
<svg version="1.1" id="Layer_1" xmlns="http://www.w3.org/2000/svg" xmlns:xlink="http://www.w3.org/1999/xlink" x="0px" y="0px"
	 viewBox="0 0 538.5 538.3" style="enable-background:new 0 0 538.5 538.3;" xml:space="preserve">
<style type="text/css">
	.st0{fill:#333333;}
</style>
<g>
	<path class="st0" d="M473.2,465.7c-0.1,0-0.1,0-0.2,0l0.1,0.1c0,0,0.1,0,0.1,0.1c0,0.2,0,0.4-0.1,0.5c0.2,0,0.4-0.1,0.6-0.1
		c-0.2-0.1-0.4-0.3-0.5-0.4C473.2,465.8,473.2,465.7,473.2,465.7L473.2,465.7z"/>
	<path class="st0" d="M462.8,460.9c-0.2,0-0.5-0.1-0.7-0.1c-14.4-2.4-29-0.8-44.6-1.1c4.3,3.9,8.7,4.7,13,4.9c0.9,0,1.8,0.1,2.7,0.1
		c0.2,0,0.4,0,0.5,0c0.7,0,1.4,0,2.1,0.1c0.1,0,0.1,0,0.2,0c12.3,0.2,24.6-0.9,36.9,0.8l0,0l0,0
		C470.3,462.5,466.6,461.6,462.8,460.9z"/>
	<path class="st0" d="M88.3,381.6c3,11.5,4.1,23.2,3.8,32.7c0.1,20.3-2.6,38.1-4.5,56c-1.1,9.9-2.6,19.8-2.5,29.8
		c0,3.6-1.6,34.6-4.7,38.2h8.5c1.7-23.6,4-42.1,6.4-65.6c2.6-26,4.8-52,4.6-78.2c0-3.7,0.1-7.4-0.5-11c-0.7-4.6,0.6-7.8,4.5-10.1
		C105.8,372.2,87.5,378.2,88.3,381.6z"/>
	<path class="st0" d="M73.7,533.5c-2.5,0.4-2.8,2.4-2.7,4.6c0,0.1,0,0.2,0,0.2h5.7c-0.1-0.4-0.3-0.8-0.4-1.2
		C75.8,535.6,76.7,533,73.7,533.5z"/>
	<path class="st0" d="M17.7,526.1c-1.8-0.6-3.8,0.7-5.2,2.2c-0.2,0.2-0.4,0.4-0.6,0.7c1.7,1.6,3.6,3,5.6,4.2
		c0.2-0.8,0.4-1.5,0.5-2.3C18.2,529.3,20.1,527,17.7,526.1z"/>
	<path class="st0" d="M32.3,525.7c-0.5,1.3-3.5-1.7-3.3,1.6c0.3,3.6-0.5,6.8-1.7,9.8c2.8,0.7,5.7,1.1,8.7,1.1h0.8
		c0.4-1.6,0.8-3.1,1.4-4.6C40.4,527.9,39,525.8,32.3,525.7z"/>
	<path class="st0" d="M219.1,174.6c-0.7-0.5-1.6,0.7-1.7,1.4c-0.2,2.6-1.7,5.3,3.1,5.9c23.1,3,45.8,8,68.6,12.5
		c22.7,4.4,45.6,7.8,69.5,5.9c-1.9-3.8-4.8-5.5-8.1-6.8c-4-1.5-8.3-1.4-12.4-1c-13.3,1.2-26.2-0.9-39.1-3.5
		c-20.7-4.2-41.1-9.5-62.1-12C231,176.4,224.6,178.6,219.1,174.6z"/>
	<path class="st0" d="M59.5,530.7c-3.3,0.2-4.6,2.6-5.1,5.3c-0.2,0.8-0.2,1.5-0.3,2.3h9.7c-0.1-0.7-0.2-1.6-0.5-2.4
		C62.7,533.7,63.2,530.5,59.5,530.7z"/>
	<path class="st0" d="M84.1,411.1c0-3.3-0.7-6.8,0.1-9.9c1.5-5.4-0.7-6.3-5.4-5.4c-1.8,0.6-4.2-1-5.9,0.9
		c-4.4,5.3-0.5,16.3,6.2,17.9C82.2,415.3,84.1,414.5,84.1,411.1z"/>
	<path class="st0" d="M502.3,0H36C16.2,0,0,16.2,0,36v466.3c0,8.1,2.7,15.5,7.2,21.5c9.5-41.7,22.2-82.1,44.7-118.9
		c3.2-5.2,6.8-10.2,10.4-15.3c4.7-6.8,9.9-12.8,18.4-15.1c5.4-1.5,7.7-6,8.3-11.3c0.5-4,1.3-8,1-11.9c-1.3-18.3,6.1-33,18-45.9
		c6.8-7.4,13.5-14.8,20.8-21.6c12.3-11.4,17.4-26.1,19.2-42.1c1.7-15.2,2-30.5,0.2-45.8c-0.7-6.3-4.2-11.5-5.9-17.3
		c-2.1-7-5.7-9-13.1-9.4c-17.2-0.9-34.3-4.3-51.5-6c-11.5-1.1-22.5,0.6-33.8,1.9c-4.2,0.5-8.2,0.8-12.4-0.2
		c-5.9-1.5-7.9-3.1-10.4-9.4c8.9,0.5,17.6,1,26.3,1.4c16.5,0.7,32.9,1.2,49.4,2.1c12.6,0.7,25.2,1.7,37.8,2.8
		c3.3,0.3,5.1-0.5,6.4-3.7c3.7-9.5,9-18,15.1-26.2c6-8.1,8.6-18.2,13.2-27.2c6.8-13.4,14.1-26.4,26.7-35.5
		c8.6-6.2,18.3-9.2,28.9-9.5c16.1-0.5,31.8,2.5,47.6,4.3c34.4,3.8,67.9,12.2,101.6,19.6c3.4,0.7,3.6,1.9,3.4,4.9
		c-0.6,12.8-1.5,25.6,1.6,38.3c0.6,2.7,0.7,5.4,5,5c3-0.2,4.6,2.9,6.1,5.3c4.6,7.2,6.8,15.4,9.8,23.3c0.5,1.2,0.9,2.4,1.5,3.9
		c10-5.7,20.5-5.4,30.8-3.1c15.3,3.5,30.5,4.2,46.1,2.4c3.8-0.4,7.6-0.1,11.5,0.2c2.9,0.2,5.5,1.3,7.6,3.3c1.3,1.2,3.1,2.8,2.4,4.6
		s-2.9,0.9-4.4,1c-14,0.3-27.8-2.1-41.7-3.4c-16.7-1.6-33.4-3.5-50,1.3c-3.4,1-4.6,2.2-4.7,6c-0.2,13.2-5.9,24.1-15.6,32.7
		c-2.5,2.2-3.4,4.5-3.2,7.7c0.5,10.5-0.9,21,0.8,31.4c0.6,4,1.8,6.1,6.4,7.1c45.7,9.3,79.4,36.1,106.4,72.8
		c7.9,10.7,14.8,22,22.3,33c2,3.5,4.1,7.1,6.1,10.6c1.9,5.3,5.7,8.1,10.9,10.4c1.8,0.8,3.6,1.6,5.3,2.5V36
		C538.3,16.2,522.1,0,502.3,0z"/>
	<path class="st0" d="M479.2,461.7c-2.4,0.2-2.9,1.9-3,3.8c-0.1,1-0.1,2,0,3c0.2,4.2-1.6,5.4-5.8,5c-15.6-1.7-31.2-2-46.8-2.4
		c-25.3-0.7-50.6-0.6-75.9,0.3c-36.6,1.2-73.1,3.5-109.5,8.2c-11.1,1.4-11.2,1.1-11.5-10.4c-0.1-4.1,1.5-5.1,5.1-5.5
		c18.1-1.7,36.2-1.8,54.3-1.3c32.6,0.8,65.2,3.8,97.8,1.3c10.2-0.8,20.4-2,30.6-5.9c-4.3,0-8.1-0.2-11.9,0
		c-27.1,1.3-54.3,1.2-81.4,0.6c-31.5-0.7-62.9-1.3-94.4-1.4c-2.4,0-5.5-0.7-4.4,3.6c1.7,6.9-0.3,13.1-2.9,19.3
		c-1.5,3.7-2.8,7.4-4.1,11.2c-1,3.1,0,4.5,3.5,4.5c12-0.2,23.9,0.6,35.9,0.4c31.1-0.5,62.2-1.8,93.3-0.8c29.3,1,58.5,3.5,87.6,6
		c14.1,1.2,28.2,2.2,42.3,3.3c2.2,0.2,3.8-0.1,4-2.9c0.9-12.1,2.2-24.2,0.2-36.4C481.8,463.6,482,461.5,479.2,461.7z M470.4,493.9
		c-20.6,3.2-41.2,1.4-61.7-0.6c-23.2-2.3-46.3-5.3-69.7-3.5c-7.3,0.6-14.5,1.8-21.7,3.4c-1.8,0.4-4,2.3-4.6-1.8
		c-0.3-2.1-3.1-1.3-4.8-1.3c-20.3,0-40.7,0-61,0c-1.8,0-3.6,0-5.4,0c18.3-4.8,36.7-7.4,55.2-9.3c30.4-3.1,60.8-3.6,91.3-2.8
		c28.3,0.8,56.5,2,84.8,2.9c3.4,0.1,4.3,1.5,4.5,4.4C478,492.9,478,492.7,470.4,493.9z"/>
	<path class="st0" d="M319.8,379c-3.3,1.9-4.5,4.6-4.6,8.1c-0.3,10.2,2.1,19.7,6.7,28.7c3.1,6.2,6.8,11.4,13.7,8.9
		c11.4,0.1,21.1-1.5,29.8-7.3c1.5-1,2.7-2,3.1-4.2c2.5-12.6-3.1-28.5-13-35.1C343.4,370.2,331.6,372.2,319.8,379z M360.2,404
		c0.4,0.5,0.6,0.6,0.6,0.7c0,12.3,2.2,10.1-10.1,13c-6,1.4-12.1,2.2-18.2,0.8c-3-0.6-5.3-2.1-5.9-5.3c-0.3-1.5,0.2-3.2,1.3-4.1
		c1-0.8,2,0.7,2.9,1.3c5.1,3.4,10.4,2.7,15.8,1C351.4,409.8,355.9,407.3,360.2,404z M355.3,395.3c-0.8,5.7-5.2,7.8-10,9.1
		c-2.7,0.7-5.5,1.6-8.2,1.1c-2.7,0.5-4.2-0.4-5.7-2.8c-2.6-4.4-6-8.3-8.9-12.5c-1.5-2.2-1.4-3.9,1.2-5.7c8.1-5.5,18-6.4,25.1-1.6
		C353.2,385.8,356,389.7,355.3,395.3z"/>
	<path class="st0" d="M423.5,372.1c-13.3-0.1-21.8,6.2-23.9,19.1c-2.2,13.2,1.7,25.1,11.2,34.6c7.1,7.1,16,7.2,24.6,2.1
		c14.4-8.5,15.8-26,11.5-39.2C443.5,378,434.8,372.1,423.5,372.1z M423.4,424c-5.7,0.7-10.6-0.9-15.5-6.6c12.8,3.1,23.3,1.3,32.7-6
		C438,419.9,431.3,423,423.4,424z M438.9,403.3c-5.4,5.9-11.3,10.8-20.8,10.2c-0.4,0-1.6,0.1-2.7,0c-5.3-0.5-5.8-1.4-3.4-6.1
		c0.4-0.7,0.9-1.4,1.1-2.2c0.3-1.4,0.9-3.3-0.5-4.1c-1.4-0.9-2.4,0.7-3.2,1.7c-1.3,1.6-2.6,3.5-4.9,2.6c-2.4-1-1.2-3.5-1.2-5.3
		c0.1-8.3,4.5-14,11.8-17.5c7.6-3.7,15.1-3.9,22.1,1.2C444.2,388.9,444.8,396.9,438.9,403.3z"/>
	<path class="st0" d="M243.4,422.1c10,5,20,2,25.7-7.6c5.8-9.8,7-20.1,1.4-30.3c-5.4-9.9-14.8-12.7-25.3-12.6
		c-9.9,0-11.9,1.6-14,11.4c-1.5,7.1-0.4,14.2-0.8,21.3C230,414.1,236,418.5,243.4,422.1z M270.8,403.6c-0.4,5.9-5.6,13.7-8.9,13.8
		c-11.5,0.4-22.1-1.6-23.1-11.6C249.4,407.4,260.1,409,270.8,403.6z M241.3,381.8c4.3-0.2,8.4-1.6,12.7-2c7.5-0.6,11.2,3.7,9.7,11
		c-0.6,2.7-1,5.6-2,8.2c-1.3,3.5-4.6,2.1-7.1,2.6c-3.9-0.4-7.7-0.7-11.5-1.1c-0.8-0.1-2,0-1.9-1.1c0.4-5-3-9.1-3.1-14
		C238.2,383.2,238.4,382,241.3,381.8z"/>
	<path class="st0" d="M369.3,121.9c-6.8-1.9-13.5-3.8-20.4-5.6c-24.6-6.5-49.4-12.2-75.1-11.4c-6.9,0.2-13.6,1-20.1,3.4
		c9.9,0.9,20-1.2,30.6,2.3c-1.4,0.9-1.9,1.3-2.5,1.6c-16.5,8.2-23,22.1-22.7,39.9c0,1.7,0.1,3.2,1.1,4.7c7.1,11,21.3,14.9,32.9,8.9
		c16.2-8.4,21.8-30.4,12.4-47.8c-0.8-1.5-2.3-2.7-2.1-4.9C325.7,114.1,346.6,123.9,369.3,121.9z M284.7,131.9
		c0.6,0.1,2.2,0.4,3.8,0.6c3.1,0.3,5.7,1.6,6,4.9c0.4,3.6-2.2,5.7-5,7.4c-0.5,0.3-1.5,0.6-1.8,0.4c-2.7-2.7-6.8-3.7-8.7-7.3
		C276.9,133.6,278.3,131.8,284.7,131.9z M301.7,151.7c-0.9,4.1-9.3,8.3-15.1,7.7c-6.2-0.6-12.1-2.7-16.5-7.3
		c-3.1-3.2-6.2-6.3-3.1-11.6c1.5-2.5,0.9-6.2,1.4-9.3c0.3-1.8,1.2-3.4,3.2-3.1c2.3,0.3,1.2,2.4,1.2,3.6c0.3,13.3,5.6,20,17.1,21.5
		c2.4,0.3,3.7-0.3,4.9-2.2c2.6-3.9,4.6-8.1,5.3-12.8c0.7-4.6-2.5-7.7-5.5-10.6c-2.6-2.5-5.8-4.5-7.9-7.5c6.7-3.9,10.5-2.9,13.3,4.2
		C303.6,133.2,303.7,142.4,301.7,151.7z"/>
	<path class="st0" d="M323.2,140.3c-3.6,5.3-4.5,11.3-5,17.5c-0.1,1.2-0.1,2.3,1.2,3c7,4.1,13.4,9.4,21.6,9.1
		c7.9,0.1,16-8.2,17.1-16.9c1.1-8.6-3.3-15.9-11.8-19.1C337.6,130.4,328.3,133.1,323.2,140.3z M326.7,151.1
		c-1.2-4.4,1.8-6.4,4.4-8.6c0.6-0.6,1.6-0.7,2.3-0.1c0.3,0.3,0.4,1,0.2,1.3c-4.1,5.6-0.8,10.4,1.9,15.6
		C330.2,159.2,328.4,157.4,326.7,151.1z M343.9,155.5c-3.9-0.1-6.9-3.2-6.6-7c0.2-2.2,0.8-2.6,3.3-2.5c3.8,0.1,6.4,3,6.4,6.7
		C346.9,154.8,346,155.6,343.9,155.5z M353.2,150.1c-6.5-3.7-8.6-10.6-14.3-14.7C349,135.4,353.6,140.1,353.2,150.1z"/>
	<path class="st0" d="M254,244.3c3,0.8,5.9,0.7,8.8-0.4c14.4-5.7,29.1-4.1,43.8-1.8c22.7,3.5,44.5,10.5,66.2,17.6
		c4,1.3-1.7-10.5-5-11.1c-13.1-2.3-26.2-4.6-39.3-6.6c-25.5-3.8-51-7-76.9-7.7c-18.8-0.6-37.4,0.5-55.2,2.9
		c-0.1-6.5-0.2-13.1-0.1-19.7c0-0.8,0.1-1.6,0.1-2.4c0.9-17.3,2.2-34.5,3.7-51.7c2.5-28.7,10.9-77.8,14.7-84.8
		c0.9-1.7-0.4-9.6-1.6-9.6c-1.4,0.1-3.7,3-5.3,5c-1.2,1.5-2.5,4.4-3.5,7.2c0,0.1-1.6,4.3-2.1,8.6c-0.6,5.5-2,10.9-2.5,16.3
		c-3.9,38.3-10.2,76.4-11.5,114.9c-0.2,5.2-0.3,10.4-0.3,15.6c-0.1,1.5-0.5,2.7-1.1,3.9c-10.6,6-25.7,18.8-25.7,18.8
		c14-8.4,29.4-14.3,45.4-16.8C222.6,239.9,238.3,240.4,254,244.3z"/>
</g>
</svg>
